<svg width="32" height="32" viewBox="0 0 32 32" fill="none" xmlns="http://www.w3.org/2000/svg">
<g id="Buy">
<g id="Iconly/Light-Outline/Buy">
<g id="Buy_2">
<path id="Combined-Shape" fill-rule="evenodd" clip-rule="evenodd" d="M10.0579 26.6024C11.0099 26.6024 11.7846 27.3757 11.7846 28.3277C11.7846 29.2797 11.0099 30.0544 10.0579 30.0544C9.10594 30.0544 8.33261 29.2797 8.33261 28.3277C8.33261 27.3757 9.10594 26.6024 10.0579 26.6024ZM25.0983 26.6024C26.0517 26.6024 26.8263 27.3757 26.8263 28.3277C26.8263 29.2797 26.0517 30.0544 25.0983 30.0544C24.1463 30.0544 23.373 29.2797 23.373 28.3277C23.373 27.3757 24.1463 26.6024 25.0983 26.6024ZM4.35687 4.01253L7.13021 4.49253C7.57687 4.57119 7.91687 4.94186 7.95554 5.39519L8.26887 9.12986L9.43401 9.13036C9.62414 9.13045 9.81225 9.13053 9.99837 9.13061L12.1374 9.13163C12.3079 9.13172 12.4765 9.1318 12.6433 9.13189L15.0051 9.13318C15.1535 9.13327 15.3001 9.13336 15.4449 9.13345L17.1 9.1345C17.2312 9.13459 17.3606 9.13468 17.4884 9.13477L18.9442 9.13584C19.0591 9.13593 19.1725 9.13602 19.2843 9.13611L20.5536 9.1372C20.6534 9.13729 20.7518 9.13738 20.8487 9.13748L21.6829 9.13831C21.7715 9.1384 21.8586 9.13849 21.9444 9.13858L22.9105 9.1397C22.9858 9.1398 23.0599 9.13989 23.1327 9.13999L23.9484 9.14113C24.0117 9.14122 24.0737 9.14132 24.1347 9.14141L24.6531 9.14228C24.7074 9.14238 24.7607 9.14247 24.8129 9.14257L25.3904 9.14374C25.4345 9.14384 25.4777 9.14394 25.52 9.14403L25.8754 9.14492C25.9122 9.14502 25.9481 9.14512 25.9831 9.14522L26.3641 9.14642C26.3927 9.14652 26.4205 9.14663 26.4475 9.14673L26.6712 9.14764C26.694 9.14774 26.716 9.14784 26.7374 9.14794L26.9637 9.14918C26.9802 9.14928 26.996 9.14938 27.0113 9.14949L27.1347 9.15042C27.1469 9.15053 27.1585 9.15063 27.1697 9.15074L27.2585 9.15168C27.2671 9.15179 27.2753 9.1519 27.2831 9.152L27.3435 9.15296C27.3492 9.15307 27.3546 9.15317 27.3596 9.15328L27.3979 9.15425C27.4014 9.15435 27.4046 9.15446 27.4076 9.15457L27.4353 9.15588C27.437 9.15599 27.4386 9.1561 27.4401 9.15621C27.4531 9.15742 27.455 9.15764 27.4569 9.15786C28.1995 9.26586 28.8529 9.65386 29.2982 10.2512C29.7435 10.8472 29.9302 11.5819 29.8235 12.3179L28.5582 21.0619C28.3195 22.7259 26.8742 23.9805 25.1942 23.9805H10.6329C8.87687 23.9805 7.39021 22.6099 7.24754 20.8565L6.02621 6.33119L4.01687 5.98453C3.47154 5.88853 3.10754 5.37253 3.20087 4.82719C3.29687 4.28186 3.82354 3.92719 4.35687 4.01253ZM9.16652 11.1303L8.43687 11.1299L9.24087 20.6925C9.29954 21.4285 9.90087 21.9805 10.6355 21.9805H25.1915C25.8862 21.9805 26.4795 21.4632 26.5782 20.7765L27.8449 12.0312C27.8742 11.8232 27.8222 11.6152 27.6955 11.4472C27.5702 11.2779 27.3862 11.1685 27.1782 11.1392C27.1686 11.1396 27.1456 11.1399 27.1098 11.1402L26.9648 11.141C26.9344 11.1412 26.9011 11.1413 26.8648 11.1414L26.1094 11.1425C26.0457 11.1426 25.9794 11.1426 25.9107 11.1426L24.1347 11.1426C24.0356 11.1425 23.9347 11.1425 23.8319 11.1425L21.8051 11.1412C21.6836 11.1411 21.5609 11.141 21.4369 11.1409L20.29 11.14C20.1594 11.1399 20.0278 11.1398 19.8953 11.1397L18.6805 11.1386C18.5433 11.1385 18.4055 11.1384 18.2671 11.1383L17.4303 11.1375C17.2899 11.1374 17.1491 11.1372 17.0079 11.1371L15.731 11.1359C15.5886 11.1358 15.4462 11.1356 15.3037 11.1355L14.4495 11.1347C14.3073 11.1346 14.1653 11.1344 14.0236 11.1343L13.1767 11.1335C13.0362 11.1334 12.8961 11.1333 12.7566 11.1332L11.5159 11.1321C11.38 11.132 11.2448 11.1319 11.1105 11.1318L9.54259 11.1306C9.41607 11.1305 9.29068 11.1304 9.16652 11.1303ZM23.0501 14.0583C23.6021 14.0583 24.0501 14.5063 24.0501 15.0583C24.0501 15.6103 23.6021 16.0583 23.0501 16.0583H19.3541C18.8007 16.0583 18.3541 15.6103 18.3541 15.0583C18.3541 14.5063 18.8007 14.0583 19.3541 14.0583H23.0501Z" fill="#1C1C1E"/>
</g>
</g>
</g>
</svg>
