<svg width="32" height="32" viewBox="0 0 32 32" fill="none" xmlns="http://www.w3.org/2000/svg">
<g id="Sport/fitness-biceps">
<circle id="Dot" cx="21" cy="28" r="4" fill="#BCFF5E"/>
<g id="Group">
<path id="Path" d="M20.7881 19.1786L21.1429 18.645C22.6381 16.4035 25.4483 15.4398 28.0044 16.2921" stroke="white" stroke-width="1.5" stroke-linecap="round" stroke-linejoin="round"/>
<path id="Path_2" d="M13.4184 17.0577L15.0191 9.07568L16.7665 9.94937C17.4153 10.2733 18.2038 10.0655 18.6086 9.46384L20.1346 7.17355C20.5155 6.60112 20.4402 5.83951 19.9545 5.35279L18.0337 3.43199C17.1431 2.54118 15.7202 2.4764 14.7523 3.2826C10.2076 7.06951 6.80874 12.0486 4.93758 17.6606L4.13725 20.0429C3.73803 21.2464 4.17095 22.5695 5.20436 23.3043L7.24655 24.7635C11.1876 27.5792 16.2912 28.1941 20.7882 26.3949L22.2315 29.2814" stroke="white" stroke-width="1.5" stroke-linecap="round" stroke-linejoin="round"/>
<path id="Path_3" d="M20.7885 17.734C18.1665 15.9865 14.751 15.9865 12.1289 17.734" stroke="white" stroke-width="1.5" stroke-linecap="round" stroke-linejoin="round"/>
</g>
</g>
</svg>
