<svg width="14" height="14" viewBox="0 0 14 14" fill="none" xmlns="http://www.w3.org/2000/svg">
<g id="svg">
<path id="Vector" fill-rule="evenodd" clip-rule="evenodd" d="M3.08 13.9299H0.07V4.26989H3.08V13.9299ZM1.54 3.07989C0.63 3.07989 0 2.44989 0 1.60989C0 0.769893 0.63 0.139893 1.61 0.139893C2.59 0.139893 3.15 0.769893 3.15 1.60989C3.15 2.44989 2.59 3.07989 1.54 3.07989ZM14 13.9299H10.99V8.60989C10.99 7.34989 10.57 6.50989 9.45 6.50989C8.61 6.50989 8.12 7.06989 7.91 7.62989C7.84 7.83989 7.84 8.11989 7.84 8.39989V13.9299H4.83V7.34989C4.83 6.15989 4.76 5.17989 4.76 4.26989H7.35L7.49 5.59989H7.56C7.98 4.96989 8.89 4.05989 10.5 4.05989C12.46 4.05989 13.93 5.38989 13.93 8.18989V13.9299H14Z" fill="white"/>
</g>
</svg>
